<svg xmlns="http://www.w3.org/2000/svg" version="1.1" xmlns:xlink="http://www.w3.org/1999/xlink" xmlns:svgjs="http://svgjs.com/svgjs" width="300px" height="300px"><svg version="1.1" id="SvgjsSvg1000" xmlns="http://www.w3.org/2000/svg" xmlns:xlink="http://www.w3.org/1999/xlink" x="0px" y="0px" width="300px" height="300px" viewBox="0 0 300 300" enable-background="new 0 0 300 300" xml:space="preserve">
<g>
	<path d="M228.586,19.176h-45.171l-1.841-8.255C180.937,8.046,178.388,6,175.429,6h-50.885c-2.945,0-5.487,2.046-6.131,4.921
		l-1.827,8.255H71.394c-16.532,0-29.97,13.445-29.97,29.97v216.877c0,16.524,13.438,29.977,29.97,29.977h157.192
		c16.539,0,29.991-13.452,29.991-29.977V49.146C258.577,32.621,245.125,19.176,228.586,19.176z M238.979,266.023
		c0,5.734-4.659,10.379-10.394,10.379H71.394c-5.721,0-10.379-4.645-10.379-10.379V49.146c0-5.721,4.658-10.379,10.379-10.379
		h40.838l-1.041,4.687c-0.425,1.862,0.036,3.809,1.225,5.296c1.196,1.487,3.002,2.351,4.906,2.351h65.356
		c1.897,0,3.71-0.864,4.899-2.351s1.643-3.434,1.218-5.296l-1.034-4.687h40.824c5.734,0,10.394,4.659,10.394,10.379V266.023z"></path>
	<path d="M110.235,122.071h26.642l-6.336-4.319c-8.936-6.103-11.229-18.295-5.126-27.23c6.096-8.921,18.295-11.236,27.229-5.126
		l1.041,0.715v-7.477c0-4.85-3.93-8.779-8.772-8.779h-34.678c-4.843,0-8.772,3.929-8.772,8.779v34.664
		C101.463,118.142,105.393,122.071,110.235,122.071z"></path>
	<path d="M191.798,73.955l-30.699,29.071l-13.983-9.544c-4.453-3.052-10.557-1.897-13.615,2.57
		c-3.051,4.467-1.904,10.556,2.57,13.607l20.504,14.005c1.664,1.146,3.59,1.706,5.516,1.706c2.436,0,4.871-0.906,6.74-2.684
		l36.448-34.508c3.937-3.717,4.092-9.919,0.382-13.849C201.937,70.407,195.734,70.237,191.798,73.955z"></path>
	<path d="M110.235,189.374h26.649l-6.344-4.333c-8.936-6.104-11.229-18.295-5.126-27.23c6.096-8.928,18.295-11.235,27.229-5.125
		l1.041,0.722v-7.483c0-4.843-3.93-8.779-8.772-8.779h-34.678c-4.843,0-8.772,3.937-8.772,8.779v34.671
		C101.463,185.438,105.393,189.374,110.235,189.374z"></path>
	<path d="M191.798,141.251l-30.699,29.063l-13.983-9.544c-4.453-3.059-10.557-1.897-13.615,2.577
		c-3.051,4.461-1.904,10.549,2.57,13.607l20.504,14.005c1.664,1.133,3.59,1.699,5.516,1.699c2.436,0,4.871-0.906,6.74-2.69
		l36.448-34.494c3.937-3.71,4.092-9.912,0.382-13.849C201.937,137.704,195.734,137.534,191.798,141.251z"></path>
	<path d="M144.913,204.44h-34.678c-4.843,0-8.772,3.937-8.772,8.779v34.664c0,4.843,3.93,8.779,8.772,8.779h34.678
		c4.843,0,8.772-3.937,8.772-8.779V213.22C153.686,208.377,149.756,204.44,144.913,204.44z"></path>
</g>
</svg><style>@media (prefers-color-scheme: light) { :root { filter: none; } }
</style></svg>